<mxfile host="app.diagrams.net" modified="2024-04-10T09:47:21.871Z" agent="Mozilla/5.0 (Macintosh; Intel Mac OS X 10_15_7) AppleWebKit/537.36 (KHTML, like Gecko) Chrome/123.0.0.0 Safari/537.36" etag="Pjl7CYowmjmkKre69lSl" version="24.2.3" type="github">
  <diagram id="prtHgNgQTEPvFCAcTncT" name="Page-1">
    <mxGraphModel dx="954" dy="648" grid="0" gridSize="10" guides="1" tooltips="1" connect="1" arrows="1" fold="1" page="1" pageScale="1" pageWidth="827" pageHeight="1169" math="0" shadow="0">
      <root>
        <mxCell id="0" />
        <mxCell id="1" parent="0" />
        <mxCell id="uvyjcZ-YKs-EIkMgRRQ1-1" value="合约交易赛活动-淘汰" style="swimlane;html=1;childLayout=stackLayout;startSize=20;rounded=0;shadow=0;labelBackgroundColor=none;strokeWidth=1;fontFamily=Verdana;fontSize=8;align=center;" vertex="1" parent="1">
          <mxGeometry x="274" y="502" width="960" height="1310" as="geometry" />
        </mxCell>
        <mxCell id="uvyjcZ-YKs-EIkMgRRQ1-2" value="活动" style="swimlane;html=1;startSize=20;" vertex="1" parent="uvyjcZ-YKs-EIkMgRRQ1-1">
          <mxGeometry y="20" width="510" height="1290" as="geometry" />
        </mxCell>
        <mxCell id="uvyjcZ-YKs-EIkMgRRQ1-3" value="" style="edgeStyle=none;curved=1;rounded=0;orthogonalLoop=1;jettySize=auto;html=1;fontSize=12;startSize=8;endSize=8;" edge="1" parent="uvyjcZ-YKs-EIkMgRRQ1-2" source="uvyjcZ-YKs-EIkMgRRQ1-4" target="uvyjcZ-YKs-EIkMgRRQ1-6">
          <mxGeometry relative="1" as="geometry" />
        </mxCell>
        <mxCell id="uvyjcZ-YKs-EIkMgRRQ1-4" value="淘汰任务开始" style="rounded=1;whiteSpace=wrap;html=1;" vertex="1" parent="uvyjcZ-YKs-EIkMgRRQ1-2">
          <mxGeometry x="101" y="65" width="120" height="60" as="geometry" />
        </mxCell>
        <mxCell id="uvyjcZ-YKs-EIkMgRRQ1-5" value="" style="edgeStyle=none;curved=1;rounded=0;orthogonalLoop=1;jettySize=auto;html=1;fontSize=12;startSize=8;endSize=8;" edge="1" parent="uvyjcZ-YKs-EIkMgRRQ1-2" source="uvyjcZ-YKs-EIkMgRRQ1-6" target="uvyjcZ-YKs-EIkMgRRQ1-8">
          <mxGeometry relative="1" as="geometry" />
        </mxCell>
        <mxCell id="uvyjcZ-YKs-EIkMgRRQ1-6" value="查询进行中的活动" style="whiteSpace=wrap;html=1;rounded=1;" vertex="1" parent="uvyjcZ-YKs-EIkMgRRQ1-2">
          <mxGeometry x="101" y="245" width="120" height="60" as="geometry" />
        </mxCell>
        <mxCell id="uvyjcZ-YKs-EIkMgRRQ1-7" value="" style="edgeStyle=none;curved=1;rounded=0;orthogonalLoop=1;jettySize=auto;html=1;fontSize=12;startSize=8;endSize=8;" edge="1" parent="uvyjcZ-YKs-EIkMgRRQ1-2" source="uvyjcZ-YKs-EIkMgRRQ1-8" target="uvyjcZ-YKs-EIkMgRRQ1-9">
          <mxGeometry relative="1" as="geometry" />
        </mxCell>
        <mxCell id="uvyjcZ-YKs-EIkMgRRQ1-8" value="查询活动下参与记录&lt;div&gt;未删除&lt;/div&gt;&lt;div&gt;未淘汰&lt;/div&gt;&lt;div&gt;报名成功&lt;/div&gt;&lt;div&gt;的用户记录&lt;/div&gt;&lt;div&gt;报名时间大于一定时间&lt;/div&gt;" style="whiteSpace=wrap;html=1;rounded=1;" vertex="1" parent="uvyjcZ-YKs-EIkMgRRQ1-2">
          <mxGeometry x="91" y="425" width="140" height="77" as="geometry" />
        </mxCell>
        <mxCell id="uvyjcZ-YKs-EIkMgRRQ1-9" value="查询用户钱包余额" style="whiteSpace=wrap;html=1;rounded=1;" vertex="1" parent="uvyjcZ-YKs-EIkMgRRQ1-2">
          <mxGeometry x="101" y="630.5" width="120" height="60" as="geometry" />
        </mxCell>
        <mxCell id="uvyjcZ-YKs-EIkMgRRQ1-10" value="" style="edgeStyle=none;curved=1;rounded=0;orthogonalLoop=1;jettySize=auto;html=1;fontSize=12;startSize=8;endSize=8;" edge="1" parent="uvyjcZ-YKs-EIkMgRRQ1-2" source="uvyjcZ-YKs-EIkMgRRQ1-11" target="uvyjcZ-YKs-EIkMgRRQ1-13">
          <mxGeometry relative="1" as="geometry" />
        </mxCell>
        <mxCell id="uvyjcZ-YKs-EIkMgRRQ1-11" value="钱包余额是否未0" style="rhombus;whiteSpace=wrap;html=1;" vertex="1" parent="uvyjcZ-YKs-EIkMgRRQ1-2">
          <mxGeometry x="127" y="800" width="80" height="80" as="geometry" />
        </mxCell>
        <mxCell id="uvyjcZ-YKs-EIkMgRRQ1-12" value="" style="edgeStyle=none;curved=1;rounded=0;orthogonalLoop=1;jettySize=auto;html=1;fontSize=12;startSize=8;endSize=8;" edge="1" parent="uvyjcZ-YKs-EIkMgRRQ1-2" source="uvyjcZ-YKs-EIkMgRRQ1-13" target="uvyjcZ-YKs-EIkMgRRQ1-14">
          <mxGeometry relative="1" as="geometry" />
        </mxCell>
        <mxCell id="uvyjcZ-YKs-EIkMgRRQ1-13" value="标记用户淘汰" style="whiteSpace=wrap;html=1;" vertex="1" parent="uvyjcZ-YKs-EIkMgRRQ1-2">
          <mxGeometry x="107" y="1010" width="120" height="60" as="geometry" />
        </mxCell>
        <mxCell id="uvyjcZ-YKs-EIkMgRRQ1-14" value="结束" style="whiteSpace=wrap;html=1;" vertex="1" parent="uvyjcZ-YKs-EIkMgRRQ1-2">
          <mxGeometry x="107" y="1190" width="120" height="60" as="geometry" />
        </mxCell>
        <mxCell id="uvyjcZ-YKs-EIkMgRRQ1-15" value="" style="edgeStyle=segmentEdgeStyle;endArrow=classic;html=1;curved=0;rounded=0;endSize=8;startSize=8;sourcePerimeterSpacing=0;targetPerimeterSpacing=0;fontSize=12;exitX=0;exitY=0.5;exitDx=0;exitDy=0;entryX=0;entryY=0.5;entryDx=0;entryDy=0;" edge="1" parent="uvyjcZ-YKs-EIkMgRRQ1-2" source="uvyjcZ-YKs-EIkMgRRQ1-11" target="uvyjcZ-YKs-EIkMgRRQ1-9">
          <mxGeometry width="140" relative="1" as="geometry">
            <mxPoint x="170" y="677" as="sourcePoint" />
            <mxPoint x="310" y="737" as="targetPoint" />
            <Array as="points">
              <mxPoint x="50" y="840" />
              <mxPoint x="50" y="661" />
            </Array>
          </mxGeometry>
        </mxCell>
        <mxCell id="uvyjcZ-YKs-EIkMgRRQ1-16" value="合约" style="swimlane;html=1;startSize=20;" vertex="1" parent="uvyjcZ-YKs-EIkMgRRQ1-1">
          <mxGeometry x="510" y="20" width="430" height="1290" as="geometry" />
        </mxCell>
        <mxCell id="uvyjcZ-YKs-EIkMgRRQ1-17" value="钱包余额sdk接口" style="whiteSpace=wrap;html=1;rounded=1;" vertex="1" parent="uvyjcZ-YKs-EIkMgRRQ1-16">
          <mxGeometry x="99" y="630.5" width="120" height="60" as="geometry" />
        </mxCell>
        <mxCell id="uvyjcZ-YKs-EIkMgRRQ1-18" value="" style="edgeStyle=segmentEdgeStyle;endArrow=classic;html=1;curved=0;rounded=0;endSize=8;startSize=8;sourcePerimeterSpacing=0;targetPerimeterSpacing=0;fontSize=12;exitX=0.5;exitY=1;exitDx=0;exitDy=0;" edge="1" parent="uvyjcZ-YKs-EIkMgRRQ1-16" source="uvyjcZ-YKs-EIkMgRRQ1-17">
          <mxGeometry width="140" relative="1" as="geometry">
            <mxPoint x="-314" y="493" as="sourcePoint" />
            <mxPoint x="-301" y="838" as="targetPoint" />
            <Array as="points">
              <mxPoint x="159" y="740" />
              <mxPoint x="156" y="740" />
              <mxPoint x="156" y="748" />
              <mxPoint x="159" y="748" />
              <mxPoint x="159" y="838" />
            </Array>
          </mxGeometry>
        </mxCell>
        <mxCell id="uvyjcZ-YKs-EIkMgRRQ1-19" value="" style="edgeStyle=none;curved=1;rounded=0;orthogonalLoop=1;jettySize=auto;html=1;fontSize=12;startSize=8;endSize=8;" edge="1" parent="uvyjcZ-YKs-EIkMgRRQ1-1" source="uvyjcZ-YKs-EIkMgRRQ1-9" target="uvyjcZ-YKs-EIkMgRRQ1-17">
          <mxGeometry relative="1" as="geometry" />
        </mxCell>
        <mxCell id="uvyjcZ-YKs-EIkMgRRQ1-20" value="是" style="text;html=1;align=center;verticalAlign=middle;resizable=0;points=[];autosize=1;strokeColor=none;fillColor=none;fontSize=16;" vertex="1" parent="1">
          <mxGeometry x="447.5" y="1440.5" width="34" height="31" as="geometry" />
        </mxCell>
        <mxCell id="uvyjcZ-YKs-EIkMgRRQ1-21" value="否" style="text;html=1;align=center;verticalAlign=middle;resizable=0;points=[];autosize=1;strokeColor=none;fillColor=none;fontSize=16;" vertex="1" parent="1">
          <mxGeometry x="336.5" y="1332.5" width="34" height="31" as="geometry" />
        </mxCell>
      </root>
    </mxGraphModel>
  </diagram>
</mxfile>
